<svg width="20" height="20" viewBox="0 0 20 20" fill="none" xmlns="http://www.w3.org/2000/svg">
<g clip-path="url(#clip0)">
<path d="M8.02151 20C9.32727 20 10.3858 18.9415 10.3858 17.6357C10.3858 16.33 9.32727 15.2714 8.02151 15.2714C6.71575 15.2714 5.65723 16.33 5.65723 17.6357C5.65723 18.9415 6.71575 20 8.02151 20Z" fill="#012939"/>
<path d="M14.9214 15.2715C13.6157 15.2715 12.5571 16.33 12.5571 17.6358C12.5571 18.9415 13.6157 20 14.9214 20C16.2272 20 17.2857 18.9415 17.2857 17.6358C17.2857 16.33 16.2272 15.2715 14.9214 15.2715Z" fill="#012939"/>
<path d="M18.9505 12.8589H6.62241L6.38116 11.4596H16.5138C16.8119 11.4605 17.0801 11.2785 17.1893 11.0012L19.6019 4.92164C19.7485 4.54977 19.5658 4.12946 19.1939 3.98291C19.1087 3.94932 19.0179 3.93221 18.9264 3.9325H5.12664L4.54763 0.603191C4.48816 0.251159 4.18085 -0.00493816 3.82386 5.65485e-05H1.04945C0.649727 5.65485e-05 0.325684 0.3241 0.325684 0.723818C0.325684 1.12354 0.649727 1.44758 1.04945 1.44758H3.22073L5.29551 13.7033C5.35498 14.0553 5.66229 14.3114 6.01928 14.3064H18.9505C19.3502 14.3064 19.6742 13.9824 19.6742 13.5827C19.6742 13.1829 19.3502 12.8589 18.9505 12.8589Z" fill="#012939"/>
</g>
<defs>
<clipPath id="clip0">
<rect width="20" height="20" fill="white"/>
</clipPath>
</defs>
</svg>
